<svg width="920" height="300" viewBox="0 0 920 300" fill="none" xmlns="http://www.w3.org/2000/svg">
<rect width="920" height="300" rx="10" fill="white"/>
<path d="M444.186 132.5V126.314H456.5V114H462.686V126.314H475V132.5H462.686V144.814H456.5V132.5H444.186Z" fill="black"/>
<path d="M236 182H244.025C246.213 182 248.088 182.787 249.65 184.362C251.225 185.937 252.013 187.812 252.013 189.987V210.012C252.013 212.175 251.225 214.05 249.65 215.637C248.088 217.212 246.213 218 244.025 218H236C233.812 218 231.931 217.219 230.356 215.656C228.794 214.081 228.012 212.2 228.012 210.012V189.987C228.012 187.8 228.794 185.925 230.356 184.362C231.931 182.787 233.812 182 236 182ZM236 189.987V210.012C236 211.087 236.388 212.019 237.163 212.806C237.95 213.594 238.9 213.988 240.013 213.988C241.125 213.988 242.069 213.594 242.844 212.806C243.631 212.019 244.025 211.087 244.025 210.012V189.987C244.025 188.9 243.625 187.969 242.825 187.194C242.037 186.406 241.1 186.012 240.013 186.012C238.912 186.012 237.969 186.406 237.181 187.194C236.394 187.969 236 188.9 236 189.987ZM259.981 189.987H267.969V194C267.969 192.65 268.306 191.644 268.981 190.981C269.656 190.319 270.656 189.987 271.981 189.987H275.994C278.181 189.987 280.056 190.781 281.619 192.369C283.194 193.944 283.981 195.825 283.981 198.013V210.012C283.981 212.2 283.194 214.081 281.619 215.656C280.056 217.219 278.181 218 275.994 218H267.969V225.988H259.981V189.987ZM267.969 213.988H271.981C273.069 213.988 274.006 213.6 274.794 212.825C275.594 212.037 275.994 211.1 275.994 210.012V198.013C275.994 196.912 275.594 195.975 274.794 195.2C274.006 194.412 273.069 194.019 271.981 194.019C270.881 194.006 269.938 194.394 269.15 195.181C268.363 195.969 267.969 196.912 267.969 198.013V213.988ZM315.95 206H299.938V210.012C299.938 211.087 300.325 212.019 301.1 212.806C301.888 213.594 302.838 213.988 303.95 213.988H307.963C310.613 213.988 311.938 212.662 311.938 210.012H315.95C315.325 215.337 312.663 218 307.963 218H299.938C297.75 218 295.869 217.219 294.294 215.656C292.731 214.081 291.95 212.2 291.95 210.012V198.013C291.95 195.8 292.737 193.912 294.312 192.35C295.888 190.775 297.763 189.987 299.938 189.987H307.963C310.15 189.987 312.025 190.781 313.588 192.369C315.163 193.944 315.95 195.825 315.95 198.013V206ZM299.938 201.987H307.963V198.013C307.963 196.912 307.563 195.969 306.763 195.181C305.975 194.394 305.037 194 303.95 194C302.85 194 301.906 194.394 301.119 195.181C300.331 195.969 299.938 196.912 299.938 198.013V201.987ZM323.919 218V189.987H331.906V194C332.069 192.65 332.481 191.644 333.144 190.981C333.819 190.319 334.744 189.987 335.919 189.987H339.931C342.119 189.987 343.994 190.781 345.556 192.369C347.131 193.944 347.919 195.825 347.919 198.013V218H339.931V198.013C339.931 196.912 339.531 195.969 338.731 195.181C337.944 194.394 337.006 194 335.919 194C334.819 194 333.875 194.394 333.088 195.181C332.3 195.969 331.906 196.912 331.906 198.013V218H323.919ZM387.594 189.987H383.619C383.269 187.312 382.006 185.975 379.831 185.975C378.431 185.975 377.375 186.312 376.663 186.987C375.95 187.662 375.594 188.669 375.594 190.006C375.594 191.006 375.988 191.944 376.775 192.819L385.25 202.344C386.812 204.094 387.594 205.975 387.594 207.987V210.012C387.594 212.175 386.812 214.05 385.25 215.637C383.688 217.212 381.806 218 379.606 218H375.594C372.944 218 370.95 217.331 369.613 215.994C368.275 214.656 367.606 212.662 367.606 210.012H371.619C371.594 210.287 371.581 210.506 371.581 210.669C371.581 211.756 372 212.581 372.837 213.144C373.675 213.706 374.594 213.988 375.594 213.988C377.019 213.988 378.044 213.644 378.669 212.956C379.294 212.269 379.606 211.269 379.606 209.956C379.606 208.944 379.213 208.006 378.425 207.144L369.95 197.656C368.388 195.919 367.606 194.037 367.606 192.012V189.987C367.606 187.812 368.388 185.937 369.95 184.362C371.513 182.787 373.394 182 375.594 182H379.606C384.606 182 387.269 184.662 387.594 189.987ZM403.625 189.987H411.65C413.838 189.987 415.713 190.781 417.275 192.369C418.85 193.944 419.638 195.825 419.638 198.013V210.012C419.638 212.175 418.85 214.05 417.275 215.637C415.713 217.212 413.838 218 411.65 218H403.625C401.438 218 399.556 217.219 397.981 215.656C396.419 214.081 395.637 212.2 395.637 210.012V198.013C395.637 195.8 396.425 193.912 398 192.35C399.575 190.775 401.45 189.987 403.625 189.987ZM403.625 198.013V210.012C403.625 211.087 404.013 212.019 404.788 212.806C405.575 213.594 406.525 213.988 407.638 213.988C408.75 213.988 409.694 213.594 410.469 212.806C411.256 212.019 411.65 211.087 411.65 210.012V198.013C411.65 196.912 411.25 195.969 410.45 195.181C409.662 194.394 408.725 194 407.638 194C406.537 194 405.594 194.394 404.806 195.181C404.019 195.969 403.625 196.912 403.625 198.013ZM451.606 189.987V218H443.619V213.988C443.306 216.663 441.969 218 439.606 218H435.594C433.406 218 431.525 217.219 429.95 215.656C428.388 214.081 427.606 212.2 427.606 210.012V189.987H435.594V210.012C435.594 211.087 435.981 212.019 436.756 212.806C437.544 213.594 438.494 213.988 439.606 213.988C440.719 213.988 441.663 213.594 442.438 212.806C443.225 212.019 443.619 211.087 443.619 210.012V189.987H451.606ZM467.562 218H459.575V189.987H467.562V198.013C467.875 195.338 468.7 193.331 470.038 191.994C471.375 190.656 473.225 189.987 475.588 189.987H479.562V198.013H471.575C470.475 198.013 469.531 198.406 468.744 199.194C467.956 199.969 467.562 200.9 467.562 201.987V218ZM503.562 198.013H499.588C499.275 195.338 497.938 194 495.575 194C494.475 194 493.531 194.394 492.744 195.181C491.956 195.969 491.562 196.912 491.562 198.013V210.012C491.562 211.087 491.95 212.019 492.725 212.806C493.513 213.594 494.463 213.988 495.575 213.988C497.938 213.988 499.275 212.662 499.588 210.012H503.562C503.238 215.337 500.575 218 495.575 218H491.562C489.375 218 487.494 217.219 485.919 215.656C484.356 214.081 483.575 212.2 483.575 210.012V198.013C483.575 195.8 484.362 193.912 485.938 192.35C487.513 190.775 489.388 189.987 491.562 189.987H495.575C500.6 189.987 503.262 192.662 503.562 198.013ZM535.606 206H519.594V210.012C519.594 211.087 519.981 212.019 520.756 212.806C521.544 213.594 522.494 213.988 523.606 213.988H527.619C530.269 213.988 531.594 212.662 531.594 210.012H535.606C534.981 215.337 532.319 218 527.619 218H519.594C517.406 218 515.525 217.219 513.95 215.656C512.388 214.081 511.606 212.2 511.606 210.012V198.013C511.606 195.8 512.394 193.912 513.969 192.35C515.544 190.775 517.419 189.987 519.594 189.987H527.619C529.806 189.987 531.681 190.781 533.244 192.369C534.819 193.944 535.606 195.825 535.606 198.013V206ZM519.594 201.987H527.619V198.013C527.619 196.912 527.219 195.969 526.419 195.181C525.631 194.394 524.694 194 523.606 194C522.506 194 521.562 194.394 520.775 195.181C519.988 195.969 519.594 196.912 519.594 198.013V201.987ZM567.294 198.013H579.294V210.012C579.294 212.662 578.438 214.656 576.725 215.994C575.025 217.331 573.219 218 571.306 218H563.281C561.094 218 559.213 217.219 557.638 215.656C556.075 214.081 555.294 212.2 555.294 210.012V189.987C555.294 187.837 556.062 185.969 557.6 184.381C559.15 182.794 561.044 182 563.281 182H571.306C576.331 182 578.994 184.662 579.294 189.987H575.281C574.969 187.337 573.644 186.012 571.306 186.012H567.294C566.194 186.012 565.25 186.406 564.463 187.194C563.675 187.969 563.281 188.9 563.281 189.987V210.012C563.281 211.112 563.675 212.05 564.463 212.825C565.25 213.6 566.194 213.988 567.294 213.988C569.844 213.863 571.181 212.537 571.306 210.012V201.987H567.294V198.013ZM603.275 201.987V198.013C603.275 196.912 602.875 195.969 602.075 195.181C601.287 194.394 600.35 194 599.263 194H595.25C592.888 194 591.563 195.338 591.275 198.013H587.262C587.875 192.662 590.538 189.987 595.25 189.987H603.275C605.463 189.987 607.338 190.781 608.9 192.369C610.475 193.944 611.263 195.825 611.263 198.013V218H603.275V213.988C602.963 216.663 601.625 218 599.263 218H595.25C593.062 218 591.181 217.219 589.606 215.656C588.044 214.081 587.262 212.2 587.262 210.012V209.975C587.262 207.788 588.05 205.912 589.625 204.35C591.2 202.775 593.075 201.987 595.25 201.987H603.275ZM603.275 206H599.263C598.162 206 597.219 206.394 596.431 207.181C595.644 207.956 595.25 208.888 595.25 209.975V210.012C595.25 211.087 595.638 212.019 596.413 212.806C597.2 213.594 598.15 213.988 599.263 213.988C600.375 213.988 601.319 213.594 602.094 212.806C602.881 212.019 603.275 211.087 603.275 210.012V206ZM643.231 218H635.244V198.013C635.244 196.912 634.844 195.969 634.044 195.181C633.256 194.394 632.319 194 631.231 194C630.131 194 629.188 194.394 628.4 195.181C627.613 195.969 627.219 196.912 627.219 198.013V218H619.231V189.987H627.219V194C627.381 192.65 627.794 191.644 628.456 190.981C629.131 190.319 630.056 189.987 631.231 189.987H635.244C637.956 189.987 639.956 190.931 641.244 192.819C641.869 191.869 642.681 191.162 643.681 190.7C644.681 190.225 645.869 189.987 647.244 189.987H651.219C653.406 189.987 655.288 190.775 656.863 192.35C658.45 193.912 659.244 195.8 659.244 198.013V218H651.219V198.013C651.219 196.925 650.825 195.987 650.037 195.2C649.25 194.4 648.319 194 647.244 194C646.144 194 645.2 194.394 644.412 195.181C643.625 195.969 643.231 196.912 643.231 198.013V218ZM691.231 206H675.219V210.012C675.219 211.087 675.606 212.019 676.381 212.806C677.169 213.594 678.119 213.988 679.231 213.988H683.244C685.894 213.988 687.219 212.662 687.219 210.012H691.231C690.606 215.337 687.944 218 683.244 218H675.219C673.031 218 671.15 217.219 669.575 215.656C668.013 214.081 667.231 212.2 667.231 210.012V198.013C667.231 195.8 668.019 193.912 669.594 192.35C671.169 190.775 673.044 189.987 675.219 189.987H683.244C685.431 189.987 687.306 190.781 688.869 192.369C690.444 193.944 691.231 195.825 691.231 198.013V206ZM675.219 201.987H683.244V198.013C683.244 196.912 682.844 195.969 682.044 195.181C681.256 194.394 680.319 194 679.231 194C678.131 194 677.188 194.394 676.4 195.181C675.613 195.969 675.219 196.912 675.219 198.013V201.987Z" fill="black"/>
<path d="M343.045 89.6172C330.032 77.6328 318.064 84.6237 313.707 89.6172C295.349 89.6172 291.921 103.521 292.502 110.472C280.651 135.616 301.701 140.727 313.707 140.139C316.263 142.254 319.613 143.371 320.969 143.664C321.434 157.529 336.848 160.407 344.498 160.113C354.025 165.988 361.248 162.561 363.669 160.113C381.33 161.288 383.615 147.287 382.55 140.139C397.422 117.816 383.131 104.598 374.126 100.779C365.528 83.39 349.823 86.0924 343.045 89.6172Z" fill="#4F71ED"/>
<path fill-rule="evenodd" clip-rule="evenodd" d="M330.822 123.817L342.482 103.245C342.043 103.181 341.004 103.2 339.821 103.221C339.171 103.233 338.479 103.245 337.818 103.245C335.486 103.245 334.32 99.6677 338.11 99.3696C341.899 99.0714 347.146 99.0714 351.81 99.0714C356.252 99.0714 358.843 101.776 359.583 102.548C359.62 102.587 359.653 102.621 359.681 102.649C360.264 103.245 361.138 106.823 357.932 109.208C355.366 111.116 348.506 111.593 345.397 111.593L339.567 122.028H343.065C342.774 121.134 343.24 118.689 347.438 116.065C351.844 113.311 357.074 113.711 359.671 113.91C360.167 113.948 360.567 113.978 360.847 113.978C362.596 113.978 366.677 116.96 366.968 119.345C367.26 121.73 365.511 123.817 363.47 125.01C361.838 125.964 355.794 126.401 352.976 126.5C356.766 128.289 359.681 133.357 359.681 136.935C359.681 139.916 358.806 143.196 352.102 145.879C345.181 148.649 338.693 146.774 335.486 144.985C332.28 143.196 328.782 138.426 332.28 133.656C335.778 128.885 340.442 127.693 343.065 127.693C345.689 127.693 345.98 129.482 345.397 130.674C345.17 131.138 344.634 131.331 343.876 131.605C342.684 132.035 340.943 132.662 338.984 134.848C335.778 138.426 339.567 142.302 343.94 142.302C348.312 142.302 352.393 142.302 352.976 137.531C353.442 133.715 347.146 128.19 343.94 125.904H337.527C337.332 126.699 334.612 129.482 328.782 131.27C321.779 133.419 311 130.376 311 123.817C311 117.258 319.454 111.593 326.741 110.401C334.029 109.208 335.195 111.295 335.486 112.19C335.778 113.084 332.863 115.171 327.907 115.171C322.952 115.171 314.207 123.817 320.037 125.904C324.701 127.573 329.17 125.208 330.822 123.817ZM349.187 122.028C350.838 119.643 356.766 116.406 359.389 118.45C359.972 118.905 360.555 120.835 358.223 122.028L349.187 122.028ZM353.559 105.332C353.792 103.424 350.936 103.345 349.478 103.544L347.729 107.121C349.575 107.32 353.326 107.24 353.559 105.332Z" fill="white"/>
<path d="M581 163C603.091 163 621 145.091 621 123C621 117.6 619.93 112.449 617.99 107.749L588.826 136.913H579.261L614.429 101.027C607.277 90.1673 594.976 83 581 83C558.909 83 541 100.909 541 123C541 130.93 543.308 138.321 547.288 144.538L575.783 116.043H587.087L552.284 150.846C559.554 158.342 569.733 163 581 163Z" fill="#EDB14F"/>
</svg>
